<?xml version="1.0" standalone="no"?>
<!DOCTYPE svg PUBLIC "-//W3C//DTD SVG 20010904//EN"
 "http://www.w3.org/TR/2001/REC-SVG-20010904/DTD/svg10.dtd">
<svg version="1.0" xmlns="http://www.w3.org/2000/svg"
 width="1001.000000pt" height="1001.000000pt" viewBox="0 0 1001.000000 1001.000000"
 preserveAspectRatio="xMidYMid meet">
<metadata>
Created by potrace 1.14, written by Peter Selinger 2001-2017
</metadata>
<g transform="translate(0.000000,1001.000000) scale(0.100000,-0.100000)"
fill="#000000" stroke="none">
<path d="M4860 8933 c-545 -10 -1016 -91 -1390 -240 -756 -300 -1211 -912
-1415 -1903 -73 -358 -125 -864 -125 -1222 l0 -123 -117 7 c-250 15 -512 57
-693 110 -158 46 -171 48 -220 37 -105 -24 -175 -92 -210 -207 -126 -407 375
-823 1307 -1086 l183 -51 0 -1762 c0 -970 3 -1763 8 -1763 4 0 322 315 707
700 l700 700 1745 2 1745 3 80 23 c164 48 273 111 394 226 138 133 227 299
260 490 7 38 11 303 11 720 l0 661 93 24 c139 35 439 135 578 192 486 199 785
456 839 723 31 155 -42 327 -167 387 -64 31 -129 29 -245 -9 -175 -57 -455
-104 -720 -120 l-118 -7 0 50 c0 27 -5 142 -10 255 -57 1199 -311 1970 -815
2475 -286 288 -627 470 -1101 589 -234 59 -564 103 -844 111 -286 9 -334 10
-460 8z m-2134 -4787 c726 -123 1539 -176 2519 -162 475 6 705 15 1050 42 383
29 825 85 1105 140 69 13 126 24 128 24 1 0 1 -287 0 -637 l-3 -638 -24 -70
c-63 -191 -212 -334 -407 -392 -55 -17 -170 -18 -1844 -21 l-1785 -2 -487
-488 -488 -487 0 1369 c0 1166 2 1367 14 1363 8 -3 108 -21 222 -41z"/>
<path d="M4250 3549 c0 -188 130 -435 293 -556 155 -115 297 -158 495 -151
218 8 352 67 507 223 133 133 202 278 221 468 l6 67 -761 0 -761 0 0 -51z"/>
</g>
</svg>
